<svg id="Layer_1" data-name="Layer 1" xmlns="http://www.w3.org/2000/svg" viewBox="0 0 22.27 98.45"><defs><style>.cls-1{fill:#b3b3b3;}</style></defs><title>bespoke_grey</title><path class="cls-1" d="M4.63,93.51a6.32,6.32,0,0,1,.25-1.81,3.59,3.59,0,0,1,.82-1.45,4,4,0,0,1,1.5-1,6.27,6.27,0,0,1,2.28-.36,20.14,20.14,0,0,1,3.85.31,6.5,6.5,0,0,1,2.56,1,4,4,0,0,1,1.43,1.88A8.18,8.18,0,0,1,17.75,95q0,0.3,0,1t-0.09,1.54q-0.06.88-.14,1.88t-0.18,2H0v-3.8H5.73A8.73,8.73,0,0,1,5,95.74,7.29,7.29,0,0,1,4.63,93.51Zm10,4a6.79,6.79,0,0,0,.13-0.85q0-.53,0-1.12a11.49,11.49,0,0,0-.06-1.2,4.94,4.94,0,0,0-.21-1A6.21,6.21,0,0,0,13.66,93a8.59,8.59,0,0,0-1-.17l-1-.1q-0.5,0-.95,0a7.7,7.7,0,0,0-1,.06,2.75,2.75,0,0,0-.84.24,1.4,1.4,0,0,0-.58.5,1.58,1.58,0,0,0-.21.88A8.23,8.23,0,0,0,8.3,96.2a11.27,11.27,0,0,0,.38,1.31H14.6Z" transform="translate(0 -2.86)"/><path class="cls-1" d="M12.57,83a1.93,1.93,0,0,0,.9-0.3,1.87,1.87,0,0,0,.6-0.65,3,3,0,0,0,.33-0.89,5,5,0,0,0,.1-1q0-.53-0.05-1.19t-0.11-1.36q-0.06-.7-0.15-1.34T14,75.16l2.63-.48a12.11,12.11,0,0,1,.54,1.48q0.24,0.8.4,1.61t0.25,1.58a11.82,11.82,0,0,1,.09,1.31,9.7,9.7,0,0,1-.31,2.55,4.72,4.72,0,0,1-1.06,2,4.88,4.88,0,0,1-2,1.27,9.11,9.11,0,0,1-3.09.45,8.63,8.63,0,0,1-3.26-.54A5.54,5.54,0,0,1,6.1,84.93,5.38,5.38,0,0,1,5,82.83a9.05,9.05,0,0,1-.34-2.49A7.24,7.24,0,0,1,5,77.9a5.48,5.48,0,0,1,1.08-1.85,4.7,4.7,0,0,1,1.64-1.18,5.22,5.22,0,0,1,2.1-.41,8.51,8.51,0,0,1,1.71.16q0.79,0.16,1,.24V83Zm-2.27-5a2.09,2.09,0,0,0-1.39.36,2,2,0,0,0-.68,1,3.93,3.93,0,0,0-.14,1.4,9.4,9.4,0,0,0,.22,1.54,3.42,3.42,0,0,0,2,.67v-5Z" transform="translate(0 -2.86)"/><path class="cls-1" d="M9.55,65.94a13.44,13.44,0,0,1,.26-2,3.39,3.39,0,0,1,.63-1.4,2.65,2.65,0,0,1,1.16-.83,5.28,5.28,0,0,1,1.85-.27,6.57,6.57,0,0,1,1.9.25,3.1,3.1,0,0,1,1.39.85,4,4,0,0,1,.86,1.57,8.38,8.38,0,0,1,.3,2.43,14.74,14.74,0,0,1-.14,2q-0.14,1-.31,1.89T17.09,72q-0.19.65-.26,0.88l-2.9-.55q0.3-2,.46-3.31a14.65,14.65,0,0,0,.14-2.12,2.64,2.64,0,0,0-.21-1.12,0.63,0.63,0,0,0-.59-0.34H13L12.85,69a8.43,8.43,0,0,1-.21,1.42,2.63,2.63,0,0,1-1.8,2,6.22,6.22,0,0,1-2.09.29,4.55,4.55,0,0,1-2-.37,3.28,3.28,0,0,1-1.28-1,4.38,4.38,0,0,1-.7-1.64,9.94,9.94,0,0,1-.21-2.14,14.54,14.54,0,0,1,.09-1.57q0.09-.8.21-1.5T5.15,63.2a7.7,7.7,0,0,1,.23-0.81l3,0.43Q8.13,64.46,8,65.6a13.35,13.35,0,0,0-.1,1.85,2.12,2.12,0,0,0,.23,1,0.66,0.66,0,0,0,.6.31H9.4q0-.6,0-1.15l0.05-.95C9.52,66.37,9.53,66.12,9.55,65.94Z" transform="translate(0 -2.86)"/><path class="cls-1" d="M4.63,51.61a6.32,6.32,0,0,1,.25-1.81,3.59,3.59,0,0,1,.82-1.45,4,4,0,0,1,1.5-1A6.27,6.27,0,0,1,9.48,47a20.14,20.14,0,0,1,3.85.31,6.5,6.5,0,0,1,2.56,1,4,4,0,0,1,1.43,1.88,8.18,8.18,0,0,1,.44,2.86c0,0.2,0,.43,0,0.68l-0.05.74c0,0.24,0,.46,0,0.66s0,0.35-.05.45h4.7v3.8H5V56.06l0.8-.27A6.64,6.64,0,0,1,5.41,55a10.28,10.28,0,0,1-.39-1,10.45,10.45,0,0,1-.29-1.16A6.27,6.27,0,0,1,4.63,51.61Zm10,4a8.29,8.29,0,0,0,.14-0.85,9.47,9.47,0,0,0,.06-1.12,11.49,11.49,0,0,0-.06-1.2,4.05,4.05,0,0,0-.24-1,6.21,6.21,0,0,0-.84-0.26,8.59,8.59,0,0,0-1-.17l-1-.1q-0.5,0-.95,0a7.7,7.7,0,0,0-1,.06,2.75,2.75,0,0,0-.84.24,1.4,1.4,0,0,0-.58.5,1.58,1.58,0,0,0-.21.88A8.23,8.23,0,0,0,8.3,54.3a11.27,11.27,0,0,0,.38,1.31H14.6Z" transform="translate(0 -2.86)"/><path class="cls-1" d="M4.63,38.46a10.84,10.84,0,0,1,.36-3,5.24,5.24,0,0,1,1.15-2.14A4.77,4.77,0,0,1,8.2,32.09a9.79,9.79,0,0,1,3.08-.43q3.48,0,5.06,1.71a7.24,7.24,0,0,1,1.59,5.09,7.25,7.25,0,0,1-1.59,5.07q-1.59,1.72-5.06,1.73a9.52,9.52,0,0,1-3.08-.44,4.93,4.93,0,0,1-2.06-1.29A5.13,5.13,0,0,1,5,41.41,10.84,10.84,0,0,1,4.63,38.46Zm10,0a2.89,2.89,0,0,0-.79-2.31,4,4,0,0,0-2.56-.66,4,4,0,0,0-2.56.66,2.89,2.89,0,0,0-.79,2.31,2.88,2.88,0,0,0,.79,2.32,4,4,0,0,0,2.56.65,4,4,0,0,0,2.56-.65A2.88,2.88,0,0,0,14.63,38.46Z" transform="translate(0 -2.86)"/><path class="cls-1" d="M17.52,20.19l-4.92,3.6,1.55,1.58h3.38v3.8H0v-3.8H10.35L5,21V16.26l5,4.8,7.5-5.3v4.42Z" transform="translate(0 -2.86)"/><path class="cls-1" d="M12.57,11.44a1.93,1.93,0,0,0,.9-0.3,1.87,1.87,0,0,0,.6-0.65A3,3,0,0,0,14.4,9.6a5,5,0,0,0,.1-1q0-.53-0.05-1.19T14.34,6q-0.06-.7-0.15-1.34T14,3.56l2.63-.48a12.11,12.11,0,0,1,.54,1.48q0.24,0.8.4,1.61t0.25,1.58a11.82,11.82,0,0,1,.09,1.31,9.7,9.7,0,0,1-.31,2.55,4.72,4.72,0,0,1-1.06,2,4.88,4.88,0,0,1-2,1.27,9.11,9.11,0,0,1-3.09.45,8.63,8.63,0,0,1-3.26-.54A5.54,5.54,0,0,1,6.1,13.33,5.38,5.38,0,0,1,5,11.23a9.05,9.05,0,0,1-.34-2.49A7.24,7.24,0,0,1,5,6.3,5.48,5.48,0,0,1,6.09,4.45,4.7,4.7,0,0,1,7.73,3.28a5.22,5.22,0,0,1,2.1-.41A8.51,8.51,0,0,1,11.54,3q0.79,0.16,1,.24v8.17Zm-2.27-5a2.09,2.09,0,0,0-1.39.36,2,2,0,0,0-.68,1,3.93,3.93,0,0,0-.14,1.4,9.4,9.4,0,0,0,.22,1.54,3.42,3.42,0,0,0,2,.67v-5Z" transform="translate(0 -2.86)"/></svg>