<svg id="Layer_1" data-name="Layer 1" xmlns="http://www.w3.org/2000/svg" viewBox="0 0 125.43 78.39"><defs><style>.cls-1{fill:#f9f9f9;}.cls-2{fill:#004a97;}.cls-3{fill:#fff;}</style></defs><title>diners</title><rect class="cls-1" width="125.43" height="78.39" rx="4.18" ry="4.18"/><path class="cls-2" d="M65.72,42.76c7.09,0,13.56-5.78,13.56-12.85,0-7.73-6.47-13.08-13.56-13.08h-6.1A12.79,12.79,0,0,0,46.54,29.91,13,13,0,0,0,59.62,42.76h6.1Z"/><path class="cls-3" d="M62.34,36.79v-14a7.52,7.52,0,0,1,0,14m-10.21-7a7.54,7.54,0,0,1,4.83-7v14a7.53,7.53,0,0,1-4.83-7M59.65,17.9A11.87,11.87,0,1,0,71.51,29.77,11.87,11.87,0,0,0,59.65,17.9"/><path class="cls-2" d="M33.28,51.61a1.15,1.15,0,0,0,1.43,1.18c3,0,3.93-2.23,3.93-4.28a4.12,4.12,0,0,0-4.29-4.41c-0.56,0-.82,0-1.07.06v7.46Zm-1.34-6.43c0-1.23-.64-1.15-1.26-1.16V43.66c0.53,0,1.08,0,1.62,0s1.36,0,2.37,0c3.55,0,5.48,2.37,5.48,4.8,0,1.36-.8,4.77-5.65,4.77l-2,0-1.84,0V52.87c0.82-.08,1.22-0.11,1.26-1V45.18Z"/><path class="cls-2" d="M42.1,44.85a0.67,0.67,0,1,1,0-1.35,0.67,0.67,0,0,1,.67.66,0.69,0.69,0,0,1-.67.69m-1.47,8h0.26c0.38,0,.66,0,0.66-0.45V48.7a0.9,0.9,0,0,0-.71-1V47.52c0.64-.19,1.41-0.45,1.47-0.49A0.47,0.47,0,0,1,42.55,47c0.07,0,.1.08,0.1,0.19v5.26c0,0.45.3,0.45,0.69,0.45h0.23v0.36l-1.44,0-1.49,0V52.87Z"/><path class="cls-2" d="M44.87,48.78c0-.51-0.15-0.64-0.79-0.9V47.62A18.26,18.26,0,0,0,45.88,47S46,47,46,47.1V48a4,4,0,0,1,2.37-1c1.16,0,1.58.85,1.58,1.92v3.54c0,0.45.3,0.45,0.69,0.45h0.25v0.36l-1.45,0-1.48,0V52.87h0.25c0.38,0,.66,0,0.66-0.45V48.87a1.1,1.1,0,0,0-1.26-1.17,3.65,3.65,0,0,0-1.59.66v4.06c0,0.45.3,0.45,0.69,0.45H46.9v0.36l-1.45,0-1.48,0V52.87h0.25c0.38,0,.66,0,0.66-0.45V48.78Z"/><path class="cls-2" d="M54.31,49a0.31,0.31,0,0,0,.38-0.34A1.16,1.16,0,0,0,53.5,47.4,1.65,1.65,0,0,0,51.93,49h2.38Zm-2.43.44a3.45,3.45,0,0,0,0,.79,2.29,2.29,0,0,0,2,2.37,2.63,2.63,0,0,0,1.85-.92l0.19,0.19a3.21,3.21,0,0,1-2.53,1.55c-2.18,0-2.62-2.11-2.62-3,0-2.69,1.81-3.48,2.77-3.48a2.18,2.18,0,0,1,2.32,2.15,1.74,1.74,0,0,1,0,.25l-0.12.08H51.88Z"/><path class="cls-2" d="M56.19,52.87h0.37c0.38,0,.66,0,0.66-0.45V48.56a0.86,0.86,0,0,0-.71-0.62V47.74c1-.43,1.55-0.78,1.67-0.78s0.12,0,.12.18v1.23h0A2.46,2.46,0,0,1,60.08,47a0.75,0.75,0,0,1,.78.73,0.67,0.67,0,0,1-.64.7c-0.42,0-.42-0.33-0.9-0.33a1.16,1.16,0,0,0-1,1.14v3.22c0,0.45.27,0.45,0.66,0.45h0.77v0.36l-1.92,0-1.63,0V52.87Z"/><path class="cls-2" d="M61.47,51.32A1.81,1.81,0,0,0,63.19,53a1,1,0,0,0,1.11-1c0-1.62-3-1.1-3-3.3A1.88,1.88,0,0,1,63.44,47a3.61,3.61,0,0,1,1.56.4l0.1,1.4H64.78a1.41,1.41,0,0,0-1.49-1.35,1,1,0,0,0-1.07.9c0,1.6,3.18,1.11,3.18,3.26,0,0.91-.73,1.86-2.36,1.86A3.61,3.61,0,0,1,61.37,53l-0.15-1.58Z"/><path class="cls-2" d="M77.78,46.14H77.44a2.61,2.61,0,0,0-2.93-2.25c-1.58,0-3.87,1.05-3.87,4.35,0,2.77,2,4.76,4.08,4.76a2.79,2.79,0,0,0,2.76-2.37l0.31,0.08-0.31,2a7.69,7.69,0,0,1-3,.73,4.88,4.88,0,0,1-5.23-5.15,5,5,0,0,1,5.19-4.83,9.9,9.9,0,0,1,3.24.73Z"/><path class="cls-2" d="M78.27,52.87h0.26c0.39,0,.66,0,0.66-0.45V44.78c0-.89-0.21-0.92-0.73-1.07V43.49a8.58,8.58,0,0,0,1.41-.59,1.39,1.39,0,0,1,.3-0.15c0.08,0,.11.08,0.11,0.19v9.47c0,0.45.3,0.45,0.69,0.45H81.2v0.36l-1.44,0-1.49,0V52.87Z"/><path class="cls-2" d="M87.07,52.47c0,0.25.15,0.26,0.38,0.26H88V53a14.22,14.22,0,0,0-2,.42l-0.07,0V52.28a3.69,3.69,0,0,1-2.43,1.15A1.48,1.48,0,0,1,82,51.8V48.29c0-.36-0.05-0.7-0.82-0.77V47.26c0.49,0,1.59-.1,1.77-0.1s0.15,0.1.15,0.4V51.1a1.31,1.31,0,0,0,1.19,1.59A3.07,3.07,0,0,0,86,51.85V48.17c0-.27-0.66-0.42-1.15-0.56V47.36c1.23-.08,2-0.19,2.14-0.19s0.11,0.1.11,0.25v5.06Z"/><path class="cls-2" d="M89.8,51.67a1.47,1.47,0,0,0,1.41,1.4c1.47,0,2.08-1.44,2.08-2.66A2.61,2.61,0,0,0,91.1,47.7a2.11,2.11,0,0,0-1.3.65v3.33Zm0-3.73a3.46,3.46,0,0,1,2-1,2.67,2.67,0,0,1,2.55,2.88,3.46,3.46,0,0,1-3.28,3.59,4,4,0,0,1-1.9-.48l-0.41.31-0.29-.15a16.1,16.1,0,0,0,.19-2.44V44.78c0-.89-0.21-0.92-0.73-1.07V43.49a8.56,8.56,0,0,0,1.41-.59,1.38,1.38,0,0,1,.3-0.15c0.08,0,.11.08,0.11,0.19v5Z"/><path class="cls-2" d="M30.66,61.19h0.11c0.27,0,.55,0,0.55-0.43V56.86c0-.39-0.28-0.43-0.55-0.43H30.66V56.21l1.11,0,1.17,0v0.22h-0.1c-0.27,0-.55,0-0.55.43v3.91c0,0.39.29,0.43,0.55,0.43h0.1v0.22l-1.18,0c-0.36,0-.81,0-1.1,0V61.19Z"/><path class="cls-2" d="M32.91,61.39V61.23H32.83a0.47,0.47,0,0,1-.58-0.46V56.86a0.47,0.47,0,0,1,.58-0.46h0.07V56.24l-1.14,0c-0.35,0-.78,0-1.07,0V56.4h0.07a0.47,0.47,0,0,1,.58.46v3.91a0.47,0.47,0,0,1-.58.46H30.7v0.16l1.06,0,1.15,0m0,0.06-1.18,0-1.1,0h0V61.16h0.14c0.27,0,.52,0,0.52-0.39V56.86c0-.37-0.25-0.39-0.52-0.39H30.63V56.18h0l1.11,0,1.17,0h0v0.29H32.83c-0.27,0-.52,0-0.52.39v3.91c0,0.37.25,0.39,0.52,0.39H33v0.29h0Z"/><path class="cls-2" d="M38.06,59.95V57.14a0.62,0.62,0,0,0-.65-0.7H37.26V56.21c0.35,0,.69,0,1,0l0.92,0v0.22H39.12c-0.31,0-.67.06-0.67,0.95v3.39a4.89,4.89,0,0,0,0,.75H38.21l-3.84-4.28v3.07c0,0.65.13,0.87,0.7,0.87H35.2v0.22c-0.32,0-.64,0-1,0s-0.68,0-1,0V61.19h0.1c0.52,0,.67-0.35.67-0.95V57.11a0.67,0.67,0,0,0-.68-0.67h-0.1V56.21l0.86,0c0.23,0,.44,0,0.66,0Z"/><path class="cls-2" d="M38,59.93h0Zm0,0,0,0Zm0.15,1.55h0.25a4.7,4.7,0,0,1,0-.72v-3.4c0-.89.38-1,0.7-1h0.08V56.24c-0.29,0-.59,0-0.89,0s-0.67,0-1,0V56.4h0.13a0.65,0.65,0,0,1,.68.73V60h0l0,0-3.32-3.75c-0.22,0-.44,0-0.66,0s-0.55,0-.83,0V56.4h0.07a0.7,0.7,0,0,1,.71.7v3.14c0,0.6-.17,1-0.7,1H33.25v0.16l1,0c0.31,0,.62,0,0.93,0V61.23H35.07c-0.59,0-.73-0.26-0.73-0.91V57.16Zm0.28,0.06H38.19L34.4,57.33v3c0,0.65.11,0.83,0.67,0.84h0.16v0.29h0l-1,0-1,0h0V61.16h0.14c0.49,0,.63-0.32.64-0.91V57.11a0.64,0.64,0,0,0-.65-0.64H33.19V56.18h0l0.86,0c0.22,0,.44,0,0.69,0L38,59.88V57.14a0.59,0.59,0,0,0-.62-0.67h-0.2V56.18h0l1,0,0.92,0h0v0.29H39.12c-0.31,0-.62,0-0.63.91v3.4a4.9,4.9,0,0,0,0,.75v0h0Z"/><path class="cls-2" d="M40.34,56.58c-0.56,0-.58.13-0.69,0.68H39.43c0-.21.07-0.42,0.09-0.63a4.69,4.69,0,0,0,0-.63h0.18a0.36,0.36,0,0,0,.45.22H44c0.2,0,.39,0,0.4-0.23l0.18,0c0,0.2-.06.4-0.08,0.6s0,0.4,0,.6l-0.22.08a0.6,0.6,0,0,0-.55-0.72H42.52v4a0.52,0.52,0,0,0,.62.64h0.14v0.22c-0.29,0-.81,0-1.22,0s-1,0-1.26,0V61.19h0.14c0.41,0,.62,0,0.62-0.63v-4H40.34Z"/><path class="cls-2" d="M43.28,61.45l-1.22,0c-0.45,0-1,0-1.26,0h0V61.16h0.17c0.41,0,.58,0,0.59-0.59v-4H40.34V56.55H41.6v4a0.53,0.53,0,0,1-.65.66H40.84v0.16c0.29,0,.8,0,1.23,0l1.18,0V61.23H43.14a0.56,0.56,0,0,1-.65-0.67v-4h1.26a0.61,0.61,0,0,1,.58.7l0.16-.06c0-.19,0-0.39,0-0.59s0-.38.08-0.57l-0.11,0a0.35,0.35,0,0,1-.43.22H40.15A0.38,0.38,0,0,1,39.72,56H39.59a4.66,4.66,0,0,1,0,.6c0,0.21-.06.4-0.08,0.6h0.16c0.1-.52.16-0.69,0.72-0.68v0.07c-0.55,0-.54.1-0.66,0.65v0H39.39v0c0-.21.07-0.42,0.09-0.63a4.31,4.31,0,0,0,0-.63v0h0.24v0c0.05,0.19.19,0.19,0.38,0.19H44c0.21,0,.36,0,0.37-0.2v0h0l0.21,0v0c0,0.2-.06.4-0.08,0.6s0,0.4,0,.6v0h0l-0.26.1v0a0.57,0.57,0,0,0-.52-0.68H42.56v3.94c0,0.56.23,0.6,0.58,0.61h0.17v0.29h0Z"/><path class="cls-2" d="M44.86,61.19H45c0.27,0,.55,0,0.55-0.43V56.86c0-.39-0.28-0.43-0.55-0.43h-0.1V56.21c0.45,0,1.23,0,1.85,0l1.91,0c0,0.32,0,.81,0,1.14l-0.22.06a0.77,0.77,0,0,0-.91-0.87h-1v2h0.89c0.45,0,.54-0.25.59-0.66h0.22c0,0.29,0,.58,0,0.87s0,0.57,0,.85l-0.22,0c0-.45-0.07-0.74-0.58-0.74H46.47V60.6c0,0.49.43,0.49,0.91,0.49,0.9,0,1.29-.06,1.52-0.91l0.21,0.05c-0.1.4-.19,0.79-0.25,1.19-0.48,0-1.34,0-2,0s-1.56,0-2,0V61.19Z"/><path class="cls-2" d="M48.82,61.38c0.06-.38.15-0.75,0.24-1.13l-0.15,0c-0.22.84-.66,0.91-1.54,0.9-0.47,0-.94,0-0.94-0.52V58.84h0.93c0.52,0,.57.31,0.61,0.73l0.16,0c0-.27,0-0.55,0-0.82s0-.56,0-0.84H48a0.58,0.58,0,0,1-.62.66H46.43v-2H47.5a0.79,0.79,0,0,1,.94.86l0.16,0c0-.21,0-0.48,0-0.73s0-.25,0-0.35l-1.88,0c-0.61,0-1.37,0-1.82,0V56.4H45a0.47,0.47,0,0,1,.58.46v3.91a0.47,0.47,0,0,1-.58.46H44.89v0.16l2,0,2,0m0,0.06-2,0-2,0h0V61.16H45c0.27,0,.52,0,0.52-0.39V56.86c0-.36-0.25-0.39-0.52-0.39H44.82V56.18h0l1.85,0,1.91,0h0v0c0,0.11,0,.25,0,0.38s0,0.54,0,.75v0h0l-0.26.07v0a0.74,0.74,0,0,0-.88-0.84h-1v1.89h0.86c0.43,0,.51-0.22.56-0.63v0H48.2v0c0,0.29,0,.58,0,0.87s0,0.56,0,.85v0h0l-0.26.05v0c-0.05-.46-0.05-0.7-0.55-0.71H46.5V60.6c0,0.45.39,0.45,0.88,0.45,0.9,0,1.26,0,1.48-.89v0h0l0.24,0.06v0c-0.1.39-.19,0.79-0.25,1.19v0h0Z"/><path class="cls-2" d="M51.06,58.73h0.36a1,1,0,0,0,1.15-1.16,1,1,0,0,0-1.09-1.09,3.82,3.82,0,0,0-.42,0v2.22Zm-1-1.73a0.46,0.46,0,0,0-.53-0.57H49.44V56.21c0.24,0,.7,0,1.16,0s0.81,0,1.2,0c0.94,0,1.77.25,1.77,1.31a1.41,1.41,0,0,1-1,1.31l1.27,1.91a0.83,0.83,0,0,0,.72.45v0.22c-0.25,0-.49,0-0.73,0s-0.47,0-.7,0A20.75,20.75,0,0,1,51.55,59H51.06v1.6a0.49,0.49,0,0,0,.61.6h0.13v0.22c-0.42,0-.86,0-1.28,0s-0.71,0-1.08,0V61.19h0.13a0.45,0.45,0,0,0,.53-0.4V57Z"/><path class="cls-2" d="M51.42,58.7a1,1,0,0,0,1.12-1.13,1,1,0,0,0-1.06-1.06,3.13,3.13,0,0,0-.39,0V58.7h0.33Zm-0.36.06h0V56.48h0a3.43,3.43,0,0,1,.43,0,1.05,1.05,0,0,1,1.12,1.12,1,1,0,0,1-1.18,1.19H51.06Zm0,0.2h0.51v0a22.85,22.85,0,0,0,1.53,2.4l0.7,0,0.7,0V61.22a0.86,0.86,0,0,1-.72-0.46l-1.3-1.94,0,0a1.37,1.37,0,0,0,1-1.28c0-1-.81-1.28-1.74-1.28-0.39,0-.75,0-1.2,0s-0.88,0-1.12,0V56.4h0.1a0.5,0.5,0,0,1,.56.6v3.79a0.49,0.49,0,0,1-.56.44h-0.1v0.16l1,0,1.25,0V61.23h-0.1A0.53,0.53,0,0,1,51,60.6V59h0Zm3.48,2.48-0.73,0c-0.23,0-.47,0-0.73,0A20.81,20.81,0,0,1,51.53,59H51.09V60.6c0,0.56.23,0.56,0.58,0.56h0.17v0.29h0l-1.28,0-1.08,0h0V61.16h0.17a0.42,0.42,0,0,0,.5-0.37V57c0-.53-0.27-0.53-0.5-0.53H49.41V56.18h0c0.24,0,.7,0,1.16,0s0.8,0,1.2,0c0.94,0,1.81.26,1.81,1.35a1.43,1.43,0,0,1-1,1.33l1.25,1.88a0.8,0.8,0,0,0,.7.43h0v0.28h0Z"/><path class="cls-2" d="M59.6,59.95V57.14a0.62,0.62,0,0,0-.65-0.7H58.8V56.21c0.35,0,.69,0,1,0s0.61,0,.92,0v0.22H60.65c-0.31,0-.66.06-0.66,0.95v3.39a5,5,0,0,0,0,.75H59.75l-3.84-4.28v3.07c0,0.65.13,0.87,0.7,0.87h0.13v0.22c-0.32,0-.64,0-1,0s-0.68,0-1,0V61.19h0.1c0.52,0,.67-0.35.67-0.95V57.11a0.67,0.67,0,0,0-.68-0.67h-0.1V56.21l0.85,0c0.22,0,.44,0,0.67,0Z"/><path class="cls-2" d="M59.58,59.93h0Zm0,0,0,0Zm0.15,1.55H60a5.09,5.09,0,0,1,0-.72v-3.4c0-.89.38-1,0.7-1h0.08V56.24c-0.29,0-.59,0-0.88,0s-0.68,0-1,0V56.4H59a0.65,0.65,0,0,1,.68.73V60h0l0,0-3.32-3.75c-0.22,0-.44,0-0.66,0s-0.56,0-.83,0V56.4h0.07a0.7,0.7,0,0,1,.71.7v3.14c0,0.6-.17,1-0.7,1H54.79v0.16l1,0,0.93,0V61.23h-0.1c-0.59,0-.73-0.26-0.74-0.91V57.17ZM60,61.56H59.72l-3.78-4.22v3c0,0.65.11,0.83,0.67,0.84h0.16v0.29h0l-1,0-1,0h0V61.16h0.14c0.49,0,.63-0.32.64-0.91V57.11a0.64,0.64,0,0,0-.64-0.64H54.72V56.18h0l0.86,0c0.22,0,.44,0,0.68,0l3.28,3.69V57.14A0.58,0.58,0,0,0,59,56.47h-0.2V56.18h0l1,0,0.92,0h0v0.29H60.65c-0.31,0-.62,0-0.63.91v3.4a4.88,4.88,0,0,0,0,.75v0h0Z"/><path class="cls-2" d="M63.05,57h0l-0.69,2.11h1.39ZM62,60.35a2.89,2.89,0,0,0-.17.58c0,0.22.31,0.26,0.56,0.26h0.08v0.22c-0.3,0-.6,0-0.9,0s-0.54,0-.81,0V61.19h0a0.68,0.68,0,0,0,.65-0.49l1.19-3.42a6,6,0,0,0,.28-0.93A3.79,3.79,0,0,0,63.57,56l0.06,0a0.05,0.05,0,0,1,.05,0l0.07,0.19,1.37,3.9c0.09,0.26.18,0.54,0.27,0.76a0.48,0.48,0,0,0,.49.3h0v0.22c-0.33,0-.67,0-1,0s-0.74,0-1.12,0V61.19h0.08c0.17,0,.46,0,0.46-0.22a2.31,2.31,0,0,0-.15-0.54l-0.29-.86H62.2Z"/><path class="cls-2" d="M63,57.06h0Zm-0.63,2.07h1.31l-0.65-2Zm-0.09.06L63,57h0v0h0v0h0l0.71,2.18H62.3Zm1.53,2.19,1.09,0,1,0V61.23h0a0.5,0.5,0,0,1-.52-0.32c-0.1-.23-0.19-0.5-0.28-0.76l-1.37-3.9-0.06-.18H63.59a2.77,2.77,0,0,1-.66.3,6.45,6.45,0,0,1-.28.93l-1.19,3.42a0.71,0.71,0,0,1-.68.51h0v0.16l0.77,0,0.87,0V61.23h0c-0.24,0-.58,0-0.59-0.29a3,3,0,0,1,.17-0.59h0l0.24-.8h1.74l0.3,0.89a2.33,2.33,0,0,1,.15.55c0,0.23-.33.24-0.49,0.25h0v0.16Zm2.11,0.07c-0.33,0-.67,0-1,0l-1.12,0h0V61.16h0.11c0.17,0,.43,0,0.43-0.18a2.48,2.48,0,0,0-.15-0.53l-0.29-.84H62.22L62,60.36a3.17,3.17,0,0,0-.16.57c0,0.18.28,0.23,0.53,0.23h0.12v0.29h0l-0.9,0-0.8,0h0V61.16h0.08a0.63,0.63,0,0,0,.62-0.46l1.19-3.42a8.89,8.89,0,0,0,.3-0.95A4,4,0,0,0,63.56,56l0.07,0a0.09,0.09,0,0,1,.08,0l0.07,0.19,1.37,3.9c0.09,0.26.18,0.54,0.28,0.76a0.43,0.43,0,0,0,.46.28H66v0.29h0Z"/><path class="cls-2" d="M66.27,56.58c-0.56,0-.58.13-0.69,0.68H65.35c0-.21.07-0.42,0.09-0.63a4.53,4.53,0,0,0,0-.63h0.18a0.36,0.36,0,0,0,.45.22H70c0.2,0,.39,0,0.4-0.23l0.18,0c0,0.2-.06.4-0.08,0.6s0,0.4,0,.6l-0.22.08a0.6,0.6,0,0,0-.55-0.72H68.45v4a0.52,0.52,0,0,0,.62.64H69.2v0.22c-0.29,0-.81,0-1.22,0s-1,0-1.26,0V61.19h0.14c0.41,0,.62,0,0.62-0.63v-4H66.27Z"/><path class="cls-2" d="M69.2,61.45l-1.22,0c-0.45,0-1,0-1.26,0h0V61.16h0.17c0.41,0,.58,0,0.59-0.59v-4H66.27V56.55h1.26v4a0.53,0.53,0,0,1-.65.66H66.76v0.16c0.29,0,.8,0,1.23,0l1.18,0V61.23H69.06a0.56,0.56,0,0,1-.65-0.67v-4h1.26a0.61,0.61,0,0,1,.58.7l0.16-.06c0-.19,0-0.39,0-0.59s0-.38.08-0.57l-0.11,0a0.34,0.34,0,0,1-.43.22H66.07A0.38,0.38,0,0,1,65.64,56H65.52a4.11,4.11,0,0,1,0,.61c0,0.21-.06.4-0.08,0.6h0.16c0.1-.52.16-0.69,0.72-0.68v0.07c-0.55,0-.54.1-0.66,0.65v0H65.31v0c0-.21.07-0.42,0.09-0.63a4.27,4.27,0,0,0,0-.63v0h0.24v0c0.05,0.19.19,0.19,0.38,0.19H70c0.21,0,.36,0,0.37-0.2v0h0l0.21,0v0c0,0.2-.06.4-0.08,0.6s0,0.4,0,.6v0h0l-0.26.1v0a0.57,0.57,0,0,0-.52-0.68H68.48v3.94c0,0.56.23,0.6,0.58,0.61h0.18v0.29h0Z"/><path class="cls-2" d="M70.82,61.19h0.1c0.27,0,.55,0,0.55-0.43V56.86c0-.39-0.28-0.43-0.55-0.43h-0.1V56.21l1.1,0,1.17,0v0.22H73c-0.27,0-.55,0-0.55.43v3.91c0,0.39.28,0.43,0.55,0.43h0.1v0.22l-1.18,0c-0.37,0-.81,0-1.1,0V61.19Z"/><path class="cls-2" d="M73.06,61.38V61.23H73a0.47,0.47,0,0,1-.59-0.46V56.86A0.47,0.47,0,0,1,73,56.4h0.07V56.24l-1.14,0-1.07,0V56.4h0.07a0.47,0.47,0,0,1,.58.46v3.91a0.47,0.47,0,0,1-.58.46H70.85v0.16l1.06,0,1.15,0m0,0.06-1.18,0-1.1,0h0V61.16h0.14c0.27,0,.52,0,0.52-0.39V56.86c0-.36-0.25-0.39-0.52-0.39H70.78V56.18h0l1.1,0,1.17,0h0v0.29H73c-0.27,0-.52,0-0.52.39v3.91c0,0.37.25,0.39,0.52,0.39h0.13v0.29h0Z"/><path class="cls-2" d="M76.18,61.2c1.45,0,1.7-1.28,1.7-2.36S77.29,56.43,76,56.43s-1.69,1.16-1.69,2.16c0,1.34.61,2.61,1.82,2.61m-0.11-5.1a2.62,2.62,0,0,1,2.86,2.57,2.73,2.73,0,0,1-2.82,2.86,2.64,2.64,0,0,1-2.79-2.68,2.71,2.71,0,0,1,2.75-2.75"/><path class="cls-2" d="M74.32,58.59c0-1,.39-2.19,1.73-2.19s1.86,1.35,1.86,2.44-0.26,2.39-1.73,2.39V61.17c1.42,0,1.66-1.24,1.67-2.33S77.26,56.46,76,56.46s-1.66,1.14-1.66,2.13c0,1.33.61,2.58,1.79,2.58v0.06c-1.24,0-1.85-1.3-1.85-2.64m-1,.26a2.75,2.75,0,0,1,2.78-2.79v0.07a2.68,2.68,0,0,0-2.72,2.72A2.61,2.61,0,0,0,76.1,61.5a2.71,2.71,0,0,0,2.79-2.82,2.58,2.58,0,0,0-2.83-2.54V56.07A2.65,2.65,0,0,1,79,58.67a2.77,2.77,0,0,1-2.85,2.89,2.67,2.67,0,0,1-2.82-2.71"/><path class="cls-2" d="M83.95,59.95l0,0v-2.8a0.62,0.62,0,0,0-.65-0.7H83.15V56.21l1,0,0.92,0v0.22H85c-0.31,0-.66.06-0.66,0.95v3.39a4.66,4.66,0,0,0,0,.75H84.1l-3.84-4.28v3.07c0,0.65.13,0.87,0.7,0.87h0.13v0.22c-0.32,0-.64,0-1,0s-0.68,0-1,0V61.19h0.11c0.52,0,.67-0.35.67-0.95V57.11a0.67,0.67,0,0,0-.68-0.67h-0.1V56.21l0.86,0c0.22,0,.44,0,0.66,0Z"/><path class="cls-2" d="M83.93,59.93h0Zm0,0,0,0ZM84.1,61.5h0.24a5.35,5.35,0,0,1,0-.72v-3.4c0-.9.38-1,0.7-1h0.08V56.24c-0.29,0-.59,0-0.89,0s-0.67,0-1,0V56.4h0.13a0.65,0.65,0,0,1,.68.73V60h0l0,0-3.32-3.75c-0.22,0-.44,0-0.66,0s-0.55,0-.83,0V56.4h0.07a0.7,0.7,0,0,1,.71.7v3.14c0,0.6-.17,1-0.7,1H79.14v0.16l1,0,0.93,0V61.23H81c-0.59,0-.73-0.26-0.73-0.91V57.16Zm0.28,0.06H84.07l-3.79-4.22v3c0,0.65.11,0.83,0.67,0.84h0.16v0.29h0l-1,0-1,0h0V61.16h0.14c0.49,0,.63-0.32.64-0.91V57.11a0.64,0.64,0,0,0-.65-0.64H79.07V56.18h0l0.86,0c0.22,0,.44,0,0.69,0l3.28,3.69V57.14a0.58,0.58,0,0,0-.62-0.67h-0.2V56.18h0l1,0,0.92,0h0v0.29H85c-0.31,0-.63,0-0.63.91v3.4a4.87,4.87,0,0,0,0,.75v0h0Z"/><path class="cls-2" d="M87.4,57h0l-0.7,2.11h1.4Zm-1.09,3.3a3.07,3.07,0,0,0-.16.58c0,0.22.31,0.26,0.56,0.26h0.08v0.22c-0.3,0-.61,0-0.9,0s-0.54,0-.8,0V61.19h0a0.67,0.67,0,0,0,.65-0.49L87,57.29a5.92,5.92,0,0,0,.27-0.93A3.88,3.88,0,0,0,87.92,56L88,56A0,0,0,0,1,88,56l0.07,0.19,1.37,3.9c0.09,0.26.18,0.54,0.28,0.76a0.47,0.47,0,0,0,.49.3h0v0.22c-0.34,0-.67,0-1,0s-0.74,0-1.12,0V61.19h0.08c0.17,0,.46,0,0.46-0.22a2.35,2.35,0,0,0-.15-0.54l-0.29-.86H86.55Z"/><path class="cls-2" d="M87.37,57.06h0Zm-0.63,2.07H88l-0.65-2Zm-0.09.06L87.36,57h0v0h0v0h0l0.7,2.18H86.65Zm1.52,2.19,1.09,0,1,0V61.23h0a0.51,0.51,0,0,1-.52-0.32c-0.1-.23-0.19-0.5-0.28-0.76l-1.37-3.9L88,56.07H87.94a2.79,2.79,0,0,1-.66.3,6.39,6.39,0,0,1-.28.93L85.8,60.72a0.71,0.71,0,0,1-.68.51h0v0.16l0.77,0,0.87,0V61.23h0c-0.24,0-.58,0-0.59-0.29a3.17,3.17,0,0,1,.17-0.59h0l0.25-.8h1.74l0.3,0.89a2.24,2.24,0,0,1,.15.55c0,0.23-.32.24-0.49,0.25H88.17v0.16Zm2.12,0.06-1,0-1.12,0h0V61.16h0.11c0.17,0,.43,0,0.43-0.18a2.47,2.47,0,0,0-.15-0.53l-0.28-.84H86.57l-0.23.75a3.07,3.07,0,0,0-.16.57c0,0.18.28,0.23,0.53,0.23h0.11v0.29h0l-0.9,0-0.8,0h0V61.16h0.07a0.65,0.65,0,0,0,.62-0.46l1.19-3.42a9.21,9.21,0,0,0,.29-0.95A4,4,0,0,0,87.91,56L88,56a0.08,0.08,0,0,1,.08,0l0.07,0.19,1.37,3.9c0.09,0.26.18,0.54,0.28,0.76a0.44,0.44,0,0,0,.46.28h0.08v0.29h0Z"/><path class="cls-2" d="M92.17,60.69a0.41,0.41,0,0,0,.45.42,5.32,5.32,0,0,0,1,0,1.06,1.06,0,0,0,.72-0.4,1.69,1.69,0,0,0,.23-0.54h0.22c-0.08.43-.19,0.84-0.28,1.27-0.65,0-1.31,0-2,0s-1.31,0-2,0V61.19h0.1a0.46,0.46,0,0,0,.56-0.5V56.86c0-.39-0.29-0.43-0.56-0.43h-0.1V56.21l1.18,0c0.38,0,.75,0,1.13,0v0.22H92.67c-0.28,0-.51,0-0.51.4v3.85Z"/><path class="cls-2" d="M94.46,61.38c0.09-.4.18-0.8,0.26-1.2H94.57a1.7,1.7,0,0,1-.23.52,1.1,1.1,0,0,1-.74.41c-0.2,0-.39,0-0.57,0l-0.42,0a0.45,0.45,0,0,1-.48-0.45V56.84c0-.42.26-0.44,0.54-0.44h0.15V56.24c-0.37,0-.73,0-1.1,0s-0.76,0-1.15,0V56.4h0.07a0.47,0.47,0,0,1,.59.46v3.83a0.49,0.49,0,0,1-.59.53H90.58v0.16l1.94,0,1.94,0m0,0.06-2,0-2,0h0V61.16h0.14a0.42,0.42,0,0,0,.53-0.47V56.86c0-.36-0.26-0.39-0.53-0.39H90.51V56.18h0l1.18,0,1.13,0h0v0.29H92.67c-0.29,0-.47,0-0.48.37v3.85a0.38,0.38,0,0,0,.42.38l0.41,0a5.48,5.48,0,0,0,.57,0,1,1,0,0,0,.69-0.39,1.69,1.69,0,0,0,.22-0.52v0H94.8v0c-0.08.43-.19,0.84-0.28,1.27v0h0Z"/></svg>