<svg id="Слой_1" xmlns="http://www.w3.org/2000/svg" viewBox="202 -80.1 1000 1000"><style>.st0{fill:#9e9e9e}</style><path class="st0" d="M2591.8 5814.2c-170.7-32.6-349-182.2-431.5-360.5l-40.3-88.2V-3514l42.2-90.1c57.5-126.6 184.1-255.1 310.7-316.4l107.4-53.7 2374.2-5.8 2372.3-3.8v3682.2H6099.4v1534.2H7323l9.6 677c7.7 588.8 13.4 696.2 46 847.7 187.9 828.5 678.9 1359.7 1396.2 1507.4 149.6 30.7 266.6 36.4 897.5 36.4h723V2766.9h-339.5c-187.9 0-398.9-9.6-469.9-19.2-356.7-51.8-567.7-220.5-669.3-533.1-36.4-111.3-42.2-188-51.8-554.3l-7.7-427.7h769.1c602.2 0 769-5.8 769-23-1.9-13.4-69-356.7-149.6-763.3L10096-292l-617.5-5.8-617.5-3.8v-3684.1l1300.3 5.8 1298.4 5.8 107.4 53.7c126.6 61.4 253.2 189.9 310.7 316.4l42.2 90.1v8879.3l-53.7 107.4c-61.4 126.6-189.9 253.2-316.4 310.7l-90.1 42.2-4391.8 1.9c-2414.6 2-4430.2-3.8-4476.2-13.4z" transform="matrix(.1 0 0 -.1 0 512)"/></svg>