<?xml version="1.0" encoding="utf-8"?>
<!-- Generator: Adobe Illustrator 21.0.0, SVG Export Plug-In . SVG Version: 6.00 Build 0)  -->
<svg version="1.1" id="Capa_1" xmlns="http://www.w3.org/2000/svg" xmlns:xlink="http://www.w3.org/1999/xlink" x="0px" y="0px"
	 viewBox="0 0 425.2 425.2" style="enable-background:new 0 0 425.2 425.2;" xml:space="preserve">
<style type="text/css">
	.st0{fill:#333333;}
</style>
<g>
	<g id="post-instagram">
		<path class="st0" d="M322.1,73.1h-213c-14.6,0-26.6,12.3-26.6,27.4v219.2c0,15.1,12,27.4,26.6,27.4h213
			c14.6,0,26.6-12.3,26.6-27.4V100.5C348.7,85.4,336.7,73.1,322.1,73.1z M215.6,155.3c29.3,0,53.3,24.7,53.3,54.8
			s-24,54.8-53.3,54.8s-53.3-24.7-53.3-54.8C162.3,180,186.3,155.3,215.6,155.3z M115.8,319.7c-4,0-6.7-2.7-6.7-6.9V196.4h28
			c-1.3,4.1-1.3,9.6-1.3,13.7c0,45.2,35.9,82.2,79.9,82.2s79.9-37,79.9-82.2c0-4.1,0-9.6-1.3-13.7h28v116.4c0,4.1-2.7,6.9-6.7,6.9
			L115.8,319.7L115.8,319.7z M322.1,134.8c0,4.1-2.7,6.8-6.7,6.8h-26.6c-4,0-6.7-2.7-6.7-6.8v-27.4c0-4.1,2.7-6.8,6.7-6.8h26.6
			c4,0,6.7,2.7,6.7,6.8V134.8z"/>
	</g>
</g>
</svg>
