<?xml version="1.0" encoding="utf-8"?>
<!-- Generator: Adobe Illustrator 21.0.0, SVG Export Plug-In . SVG Version: 6.00 Build 0)  -->
<svg version="1.1" id="Layer_1" xmlns="http://www.w3.org/2000/svg" xmlns:xlink="http://www.w3.org/1999/xlink" x="0px" y="0px"
	 viewBox="0 0 141.8 141.8" style="enable-background:new 0 0 141.8 141.8;" xml:space="preserve">
<style type="text/css">
	.st0{fill:#FFFFFF;}
	.st1{fill:#333333;}
</style>
<title>Pinterest_on_photo</title>
<path class="st0" d="M70,121.3"/>
<path class="st1" d="M50.1,112c-0.3-4.3-1-10.9,0.3-15.6c1-4.3,6.3-26.9,6.3-26.9c-1.1-2.5-1.7-5.2-1.7-8c0-7.6,4.3-13.3,10-13.3
	c4.6,0,7,3.3,7,7.6c0,4.6-3,11.6-4.6,17.9c-1.3,5.3,2.7,9.6,8,9.6c9.6,0,16.9-10.3,16.9-24.9c0-12.9-9.3-21.9-22.6-21.9
	c-15.3,0-24.5,11.6-24.5,23.5c0,4.6,1.7,9.6,4,12.3c0.3,0.7,0.7,1,0.3,1.7c-0.4,2-1,4-1.7,6c-0.3,1-0.7,1.3-1.7,0.7
	c-6.6-3-10.9-12.9-10.9-20.9C35.2,42.9,47.5,27,71,27c18.9,0,33.5,13.3,33.5,31.2c-0.1,18.6-11.7,33.5-28.3,33.5
	c-5.6,0-10.6-3-12.3-6.3c0,0-2.7,10.3-3.3,12.9c-1.3,4.6-4.6,10.6-6.6,14.3C53.8,113.3,50.1,112,50.1,112z"/>
</svg>
