<svg id="Слой_1" xmlns="http://www.w3.org/2000/svg" viewBox="0 0 220.3 73.2"><style>.st0{fill-rule:evenodd;clip-rule:evenodd;fill:#9e9e9e}</style><path class="st0" d="M142 69c-2.1-1.8-3.8-4.6-4.8-6.6l7-3c.5.9 1.1 2.2 2.1 3.3 1.8 1.9 4.2 3.3 7.1 3.3 2.7 0 5.8-1.2 7.4-3.5 1.4-2 2-4.6 2-7.3v-2.7c-5 6.4-16 5.5-22.1-1.1-6.5-7.1-6.5-18.7.1-25.8 6.5-6.5 16.2-7.3 21.9-1.2v-3.1h7.6v33c0 8.4-3.1 13.2-6.9 15.9-2.8 2-6.7 3-10.2 3-4.4 0-8.2-1.6-11.2-4.2zM57.1 38.5c0-8.7 6.6-18.3 18.1-18.3 11.5 0 18.1 9.6 18.1 18.3 0 8.7-6.6 18.3-18.1 18.3-11.5 0-18.1-9.6-18.1-18.3zm39.3 0c0-8.7 6.6-18.3 18.1-18.3 11.5 0 18.1 9.6 18.1 18.3 0 8.7-6.6 18.3-18.1 18.3-11.5 0-18.1-9.6-18.1-18.3zM8.1 48.1c-11-11-10.6-28.8.3-39.8C13.9 2.7 21.1 0 28.4 0c6.9 0 13.8 2.6 19.2 7.7l-5.4 5.7c-7.9-7.6-20.4-7.5-28 .4-7.8 8.1-8 21-.2 29.1 7.8 8.1 20.8 8.5 28.7.5 2.6-2.7 3.5-6.2 4.1-9.8H28.3v-7.8h25.8c.4 1.9.4 3.9.4 5.9 0 6.4-2.8 13.2-7 17.5-4.9 5-11.7 7.6-18.9 7.5-7.4 0-14.9-3-20.5-8.6zm183.8 3.3c-6.4-7.1-6.4-18.8 0-25.9 6.5-7.1 17.5-7.1 23.7 0 2.1 2.3 3.4 5.3 4.7 8.4L196.1 44c1.4 2.8 4.2 5.6 8.6 5.6 3.8 0 6.3-1.3 9-5.1l6.3 4.2c-.7 1-1.6 1.9-2.3 2.7-6.4 7.1-19.4 7.1-25.8 0zm-16.3 4.3V1.8h8v53.9h-8zM85.3 38.5c0-5.2-3.7-11-10.1-11-6.4 0-10.1 5.8-10.1 11s3.7 11 10.1 11c6.4 0 10.1-5.8 10.1-11zm39.3 0c0-5.2-3.7-11-10.1-11-6.4 0-10.1 5.8-10.1 11s3.7 11 10.1 11c6.4 0 10.1-5.8 10.1-11zm38.4 3.3c.1-.2.2-.8.3-1.3v-.2c.1-.6.2-1.3.1-1.9 0-.6-.1-1.2-.2-1.8v-.2c-.1-.6-.2-1.1-.4-1.6-1.4-4.3-5-7.3-9.3-7.2-5.4 0-9.8 5-9.7 11.1 0 6.1 4.5 11 9.9 10.9 4.3-.1 7.9-3.2 9.3-7.8zm31.9-3.9L211 31c-1.7-2.9-4.4-3.8-6.7-3.8-6.1 0-10.3 7-9.4 10.7z"/></svg>