<svg id="Layer_1" data-name="Layer 1" xmlns="http://www.w3.org/2000/svg" viewBox="0 0 18.3 37.27"><defs><style>.cls-1{fill:#fff;}</style></defs><title>lite_white</title><path class="cls-1" d="M14.67,65.85c0-.15-0.07-0.33-0.12-0.53s-0.08-.4-0.15-0.66-0.16-.56-0.27-0.91L17.5,63a4.15,4.15,0,0,1,.19.49c0.08,0.23.15,0.49,0.23,0.79a9.72,9.72,0,0,1,.19,1,8.32,8.32,0,0,1,.07,1.1q0,3.5-3.87,3.5H0.4V66H13.73a2.39,2.39,0,0,0,.67-0.08Z" transform="translate(0 -32.57)"/><path class="cls-1" d="M2.4,62.2A2.36,2.36,0,0,1,1.46,62,2.38,2.38,0,0,1,.19,60.73,2.29,2.29,0,0,1,0,59.82a2.36,2.36,0,0,1,.19-0.94A2.57,2.57,0,0,1,.7,58.11a2.31,2.31,0,0,1,.76-0.53A2.36,2.36,0,0,1,2.4,57.4a2.26,2.26,0,0,1,.92.19,2.48,2.48,0,0,1,.76.53,2.45,2.45,0,0,1,.52.77,2.36,2.36,0,0,1,.19.94,2.34,2.34,0,0,1-.71,1.68,2.6,2.6,0,0,1-.76.51A2.26,2.26,0,0,1,2.4,62.2Zm15.5-4.27v3.8H5.4v-3.8H17.9Z" transform="translate(0 -32.57)"/><path class="cls-1" d="M13.75,51a2.43,2.43,0,0,0,.67-0.08,1.29,1.29,0,0,0,.28-0.08l-0.14-.61c-0.06-.26-0.12-0.53-0.2-0.83s-0.16-.59-0.25-0.9-0.18-.59-0.26-0.84L17.2,47a6.3,6.3,0,0,1,.24.63q0.16,0.47.33,1.11c0.11,0.42.2,0.86,0.29,1.31a6.73,6.73,0,0,1,.13,1.23,3.39,3.39,0,0,1-.94,2.6,4.15,4.15,0,0,1-2.91.88H1.2V51H5.4V47.37H8.82V51h4.93Z" transform="translate(0 -32.57)"/><path class="cls-1" d="M13,41.15a1.92,1.92,0,0,0,.9-0.3,1.88,1.88,0,0,0,.6-0.65,3,3,0,0,0,.32-0.89,5,5,0,0,0,.1-1q0-.53,0-1.19t-0.11-1.36q-0.06-.7-0.15-1.34T14.4,33.27L17,32.8a11.88,11.88,0,0,1,.54,1.47q0.24,0.8.4,1.61c0.11,0.54.19,1.07,0.25,1.58a11.71,11.71,0,0,1,.09,1.31A9.69,9.69,0,0,1,18,41.32a4.73,4.73,0,0,1-1.06,2,4.88,4.88,0,0,1-2,1.27,9.13,9.13,0,0,1-3.09.45,8.64,8.64,0,0,1-3.26-.54A5.54,5.54,0,0,1,6.48,43a5.38,5.38,0,0,1-1.14-2.1A9,9,0,0,1,5,38.45,7.24,7.24,0,0,1,5.39,36a5.48,5.48,0,0,1,1.08-1.85A4.69,4.69,0,0,1,8.1,33a5.21,5.21,0,0,1,2.1-.41,8.48,8.48,0,0,1,1.71.16c0.52,0.11.87,0.19,1,.24v8.17Zm-2.28-5a2.08,2.08,0,0,0-1.39.36,2,2,0,0,0-.68,1,3.93,3.93,0,0,0-.14,1.4,9.4,9.4,0,0,0,.22,1.54,3.42,3.42,0,0,0,2,.67v-5Z" transform="translate(0 -32.57)"/></svg>