<svg id="Layer_1" data-name="Layer 1" xmlns="http://www.w3.org/2000/svg" viewBox="0 0 125.43 78.39"><defs><style>.cls-1{fill:#f9f9f9;}.cls-2{fill:#009cde;}.cls-3{fill:#003087;}</style></defs><title>paypal</title><rect class="cls-1" width="125.43" height="78.39" rx="4.18" ry="4.18"/><path class="cls-2" d="M74.35,30.33H69.17a0.72,0.72,0,0,0-.71.61L66.37,44.21a0.43,0.43,0,0,0,.43.5h2.66a0.5,0.5,0,0,0,.5-0.43l0.59-3.76a0.72,0.72,0,0,1,.71-0.61h1.64c3.41,0,5.38-1.65,5.89-4.92a4,4,0,0,0-.66-3.34A4.8,4.8,0,0,0,74.35,30.33Zm0.6,4.85C74.67,37,73.25,37,71.87,37H71.09l0.55-3.47a0.43,0.43,0,0,1,.43-0.36h0.36a3,3,0,0,1,2.27.53A1.73,1.73,0,0,1,74.95,35.18Z"/><path class="cls-3" d="M37.42,30.33H32.24a0.72,0.72,0,0,0-.71.61L29.43,44.21a0.43,0.43,0,0,0,.43.5h2.47A0.72,0.72,0,0,0,33,44.1l0.57-3.58a0.72,0.72,0,0,1,.71-0.61H36c3.41,0,5.38-1.65,5.89-4.92a4,4,0,0,0-.66-3.34A4.8,4.8,0,0,0,37.42,30.33ZM38,35.18C37.73,37,36.31,37,34.94,37H34.16l0.55-3.47a0.43,0.43,0,0,1,.43-0.36h0.36a3,3,0,0,1,2.27.53A1.73,1.73,0,0,1,38,35.18Z"/><path class="cls-3" d="M52.89,35.12H50.41a0.43,0.43,0,0,0-.43.36l-0.11.69-0.17-.25a3.53,3.53,0,0,0-2.93-1,5.7,5.7,0,0,0-5.54,5,4.68,4.68,0,0,0,.92,3.81,3.88,3.88,0,0,0,3.12,1.26,4.75,4.75,0,0,0,3.43-1.42l-0.11.69a0.43,0.43,0,0,0,.43.5h2.23A0.72,0.72,0,0,0,52,44.1l1.34-8.49A0.43,0.43,0,0,0,52.89,35.12Zm-3.46,4.83a2.76,2.76,0,0,1-2.8,2.37,1.92,1.92,0,0,1-2.05-2.41,2.77,2.77,0,0,1,2.78-2.39,2.09,2.09,0,0,1,1.65.68A2.14,2.14,0,0,1,49.44,39.94Z"/><path class="cls-2" d="M89.83,35.12H87.35a0.43,0.43,0,0,0-.43.36l-0.11.69-0.17-.25a3.53,3.53,0,0,0-2.93-1,5.7,5.7,0,0,0-5.54,5,4.68,4.68,0,0,0,.92,3.81,3.88,3.88,0,0,0,3.12,1.26,4.75,4.75,0,0,0,3.43-1.42l-0.11.69a0.43,0.43,0,0,0,.43.5H88.2a0.72,0.72,0,0,0,.71-0.61l1.34-8.49A0.43,0.43,0,0,0,89.83,35.12Zm-3.46,4.83a2.76,2.76,0,0,1-2.8,2.37,1.92,1.92,0,0,1-2.05-2.41,2.77,2.77,0,0,1,2.78-2.39,2.09,2.09,0,0,1,1.65.68A2.14,2.14,0,0,1,86.37,39.94Z"/><path class="cls-3" d="M66.1,35.12H63.61a0.72,0.72,0,0,0-.6.32L59.58,40.5l-1.46-4.87a0.72,0.72,0,0,0-.69-0.51H55a0.43,0.43,0,0,0-.41.57l2.74,8.06-2.58,3.64a0.43,0.43,0,0,0,.35.68h2.49a0.72,0.72,0,0,0,.59-0.31l8.29-12A0.43,0.43,0,0,0,66.1,35.12Z"/><path class="cls-2" d="M92.75,30.69L90.63,44.21a0.43,0.43,0,0,0,.43.5h2.14a0.72,0.72,0,0,0,.71-0.61L96,30.83a0.43,0.43,0,0,0-.43-0.5H93.18A0.43,0.43,0,0,0,92.75,30.69Z"/></svg>