<svg id="Layer_1" data-name="Layer 1" xmlns="http://www.w3.org/2000/svg" viewBox="0 0 17.93 103.82"><defs><style>.cls-1{fill:#b3b3b3;}</style></defs><title>standard_grey</title><path class="cls-1" d="M9.55,97.7a13.37,13.37,0,0,1,.26-2,3.4,3.4,0,0,1,.63-1.4,2.66,2.66,0,0,1,1.16-.82,5.28,5.28,0,0,1,1.85-.28,6.59,6.59,0,0,1,1.9.25,3.1,3.1,0,0,1,1.39.85,4,4,0,0,1,.86,1.58,8.36,8.36,0,0,1,.3,2.42,14.76,14.76,0,0,1-.14,2q-0.14,1-.31,1.89t-0.36,1.53c-0.12.43-.21,0.72-0.26,0.88l-2.9-.55q0.3-2,.46-3.31a14.73,14.73,0,0,0,.14-2.12,2.64,2.64,0,0,0-.21-1.12,0.62,0.62,0,0,0-.59-0.34H13.05l-0.2,3.65a8.43,8.43,0,0,1-.21,1.42,2.63,2.63,0,0,1-1.8,2,6.24,6.24,0,0,1-2.09.29,4.55,4.55,0,0,1-2-.37,3.28,3.28,0,0,1-1.28-1,4.39,4.39,0,0,1-.7-1.64,10,10,0,0,1-.21-2.14,14.68,14.68,0,0,1,.09-1.58q0.09-.8.21-1.5T5.15,95a7.81,7.81,0,0,1,.22-0.81l3,0.42Q8.13,96.22,8,97.36a13.42,13.42,0,0,0-.1,1.85,2.12,2.12,0,0,0,.22,1,0.67,0.67,0,0,0,.6.31H9.4q0-.6,0-1.15c0-.32,0-0.63,0-1S9.53,97.88,9.55,97.7Z" transform="translate(0 -0.77)"/><path class="cls-1" d="M13.38,87.5a2.44,2.44,0,0,0,.68-0.08,1.27,1.27,0,0,0,.27-0.08l-0.14-.61c-0.06-.26-0.12-0.53-0.2-0.83s-0.16-.59-0.25-0.9-0.18-.59-0.26-0.84l3.35-.62a6.05,6.05,0,0,1,.24.63c0.11,0.32.22,0.69,0.33,1.11s0.2,0.86.29,1.31a6.82,6.82,0,0,1,.13,1.23,3.39,3.39,0,0,1-.94,2.6A4.15,4.15,0,0,1,14,91.3H0.83V87.5H5V83.87H8.45V87.5h4.93Z" transform="translate(0 -0.77)"/><path class="cls-1" d="M5.8,80.82q-0.15-.4-0.35-1.08t-0.39-1.5q-0.19-.82-0.31-1.75a13.66,13.66,0,0,1-.12-1.82,7.78,7.78,0,0,1,.24-2,3.73,3.73,0,0,1,.81-1.56,3.91,3.91,0,0,1,1.51-1,6.41,6.41,0,0,1,2.36-.37h8V73.1l-1.22.42H9.7a1.35,1.35,0,0,0-1.3.55,4.13,4.13,0,0,0-.3,1.85q0,0.55,0,1.19t0.11,1.26q0.06,0.63.15,1.16T8.58,80.4ZM12.18,73q0,0.55,0,1.21t0.09,1.33q0.06,0.66.16,1.24a6.72,6.72,0,0,0,.22,1,2.63,2.63,0,0,0,1.64,0,1,1,0,0,0,.5-0.9,4.47,4.47,0,0,0-.35-1.6q-0.36-1-.94-2.14h2.68a10.75,10.75,0,0,1,.61,1.06,12.19,12.19,0,0,1,.56,1.29,11.34,11.34,0,0,1,.41,1.38,5.87,5.87,0,0,1,.16,1.33,4.93,4.93,0,0,1-.2,1.45,2.55,2.55,0,0,1-.66,1.1,3.1,3.1,0,0,1-1.21.7,5.9,5.9,0,0,1-1.85.25,3.41,3.41,0,0,1-3.13-1.37A8.15,8.15,0,0,1,10,75.92q0-.37,0-0.83c0-.3,0-0.59,0-0.86s0-.53.06-0.76,0-.4.06-0.5h2Z" transform="translate(0 -0.77)"/><path class="cls-1" d="M17.53,54.27v3.8H10.15A1.46,1.46,0,0,0,8.48,59.7a8.23,8.23,0,0,0,.17,1.81A11.41,11.41,0,0,0,9,62.82h8.5v3.8H5V63.27L5.83,63a7.1,7.1,0,0,1-.41-0.8,10.37,10.37,0,0,1-.39-1,9.37,9.37,0,0,1-.29-1.11,5.85,5.85,0,0,1-.11-1.12,5.75,5.75,0,0,1,.29-1.85,3.7,3.7,0,0,1,.92-1.47,4.45,4.45,0,0,1,1.67-1,7.85,7.85,0,0,1,2.56-.36h7.45Z" transform="translate(0 -0.77)"/><path class="cls-1" d="M17.93,47.17A6.34,6.34,0,0,1,17.68,49a3.58,3.58,0,0,1-.83,1.45,4,4,0,0,1-1.5,1,6.27,6.27,0,0,1-2.28.36,20.1,20.1,0,0,1-3.85-.31,6.49,6.49,0,0,1-2.56-1,4,4,0,0,1-1.42-1.87A8.16,8.16,0,0,1,4.8,45.7q0-.3,0-0.67l0-.74c0-.24,0-0.46.05-0.66s0-.35,0-0.45H0v-3.8H17.53v3.35l-0.8.27q0.2,0.35.41,0.83a9.31,9.31,0,0,1,.39,1A10.2,10.2,0,0,1,17.81,46,6.23,6.23,0,0,1,17.93,47.17Zm-10-4a8.42,8.42,0,0,0-.14.85,9.67,9.67,0,0,0-.06,1.13,11.76,11.76,0,0,0,.06,1.2,4.06,4.06,0,0,0,.24,1,6.32,6.32,0,0,0,.84.26,8.41,8.41,0,0,0,1,.17l1,0.1q0.5,0,1,0a7.63,7.63,0,0,0,1-.06,2.76,2.76,0,0,0,.84-0.24,1.4,1.4,0,0,0,.58-0.5,1.58,1.58,0,0,0,.21-0.87,8.16,8.16,0,0,0-.18-1.81,11,11,0,0,0-.37-1.31H8Z" transform="translate(0 -0.77)"/><path class="cls-1" d="M5.8,36Q5.65,35.65,5.45,35t-0.39-1.5q-0.19-.82-0.31-1.75a13.66,13.66,0,0,1-.12-1.82,7.78,7.78,0,0,1,.24-2,3.73,3.73,0,0,1,.81-1.56,3.91,3.91,0,0,1,1.51-1A6.41,6.41,0,0,1,9.55,25h8v3.35l-1.22.42H9.7a1.35,1.35,0,0,0-1.3.55,4.13,4.13,0,0,0-.3,1.85q0,0.55,0,1.19T8.26,33.6q0.06,0.63.15,1.16t0.16,0.86Zm6.38-7.85q0,0.55,0,1.21t0.09,1.33q0.06,0.66.16,1.24a6.72,6.72,0,0,0,.22,1,2.63,2.63,0,0,0,1.64,0,1,1,0,0,0,.5-0.9,4.47,4.47,0,0,0-.35-1.6q-0.36-1-.94-2.14h2.68a10.75,10.75,0,0,1,.61,1.06,12.19,12.19,0,0,1,.56,1.29A11.34,11.34,0,0,1,17.76,32a5.87,5.87,0,0,1,.16,1.33,4.93,4.93,0,0,1-.2,1.45,2.55,2.55,0,0,1-.66,1.1,3.1,3.1,0,0,1-1.21.7A5.9,5.9,0,0,1,14,36.8a3.41,3.41,0,0,1-3.13-1.37A8.15,8.15,0,0,1,10,31.15q0-.37,0-0.83c0-.3,0-0.59,0-0.86s0-.53.06-0.76,0-.4.06-0.5h2Z" transform="translate(0 -0.77)"/><path class="cls-1" d="M8.7,16.52A4,4,0,0,0,9.53,18h8v3.8H5V18.5l1.3-.28a4.93,4.93,0,0,1-.6-0.75,6.59,6.59,0,0,1-.54-1,8.46,8.46,0,0,1-.4-1.11,4.13,4.13,0,0,1-.16-1.12c0-.08,0-0.18,0-0.3a1.73,1.73,0,0,1,0-.27l3.77,0.55A6.28,6.28,0,0,0,8.7,16.52Z" transform="translate(0 -0.77)"/><path class="cls-1" d="M17.93,8.57a6.34,6.34,0,0,1-.25,1.81,3.58,3.58,0,0,1-.83,1.45,4,4,0,0,1-1.5,1,6.27,6.27,0,0,1-2.28.36,20.1,20.1,0,0,1-3.85-.31,6.49,6.49,0,0,1-2.56-1A4,4,0,0,1,5.24,10,8.16,8.16,0,0,1,4.8,7.1q0-.3,0-0.67l0-.74c0-.24,0-0.46.05-0.66s0-.35,0-0.45H0V0.77H17.53V4.12l-0.8.27q0.2,0.35.41,0.83a9.31,9.31,0,0,1,.39,1,10.2,10.2,0,0,1,.29,1.16A6.23,6.23,0,0,1,17.93,8.57Zm-10-4a8.42,8.42,0,0,0-.14.85,9.67,9.67,0,0,0-.06,1.13,11.76,11.76,0,0,0,.06,1.2,4.06,4.06,0,0,0,.24,1,6.32,6.32,0,0,0,.84.26,8.41,8.41,0,0,0,1,.17l1,0.1q0.5,0,1,0a7.63,7.63,0,0,0,1-.06,2.76,2.76,0,0,0,.84-0.24,1.4,1.4,0,0,0,.58-0.5,1.58,1.58,0,0,0,.21-0.87,8.16,8.16,0,0,0-.18-1.81,11,11,0,0,0-.37-1.31H8Z" transform="translate(0 -0.77)"/></svg>